<svg width="1280" height="800" viewBox="0 0 1280 800" fill="none" xmlns="http://www.w3.org/2000/svg">
    <rect width="1280" height="800" fill="#0f172a"/>
    <!-- Header -->
    <rect width="1280" height="60" fill="#1e293b"/>
    <rect x="20" y="20" width="200" height="20" rx="4" fill="#6366f1"/>
    <rect x="1080" y="20" width="40" height="20" rx="4" fill="#475569"/>
    <rect x="1140" y="20" width="40" height="20" rx="4" fill="#475569"/>
    <rect x="1200" y="20" width="40" height="20" rx="4" fill="#475569"/>
    
    <!-- Sidebar -->
    <rect width="240" height="740" y="60" fill="#1e293b"/>
    <rect x="20" y="100" width="200" height="30" rx="4" fill="#3e4c5e"/>
    <rect x="20" y="150" width="200" height="30" rx="4" fill="#2e3a4d"/>
    <rect x="20" y="200" width="200" height="30" rx="4" fill="#2e3a4d"/>
    <rect x="20" y="250" width="200" height="30" rx="4" fill="#2e3a4d"/>
    <rect x="20" y="300" width="200" height="30" rx="4" fill="#2e3a4d"/>
    <rect x="20" y="350" width="200" height="30" rx="4" fill="#2e3a4d"/>
    
    <!-- Main Content -->
    <rect x="260" y="80" width="1000" height="40" rx="4" fill="#1e293b"/>
    <rect x="260" y="140" width="480" height="300" rx="8" fill="#1e293b"/>
    <rect x="280" y="160" width="440" height="20" rx="4" fill="#475569"/>
    <rect x="280" y="200" width="440" height="160" rx="4" fill="#0f172a"/>
    <rect x="280" y="380" width="80" height="30" rx="4" fill="#6366f1"/>
    
    <rect x="760" y="140" width="480" height="300" rx="8" fill="#1e293b"/>
    <rect x="780" y="160" width="440" height="20" rx="4" fill="#475569"/>
    <rect x="780" y="200" width="440" height="160" rx="4" fill="#0f172a"/>
    <rect x="780" y="380" width="80" height="30" rx="4" fill="#6366f1"/>
    
    <rect x="260" y="460" width="980" height="280" rx="8" fill="#1e293b"/>
    <rect x="280" y="480" width="940" height="240" rx="4" fill="#0f172a"/>
    <circle cx="300" cy="500" r="10" fill="#6366f1"/>
    <rect x="320" y="495" width="200" height="10" rx="2" fill="#475569"/>
    <circle cx="300" cy="540" r="10" fill="#6366f1"/>
    <rect x="320" y="535" width="300" height="10" rx="2" fill="#475569"/>
    <circle cx="300" cy="580" r="10" fill="#6366f1"/>
    <rect x="320" y="575" width="250" height="10" rx="2" fill="#475569"/>
    <circle cx="300" cy="620" r="10" fill="#6366f1"/>
    <rect x="320" y="615" width="280" height="10" rx="2" fill="#475569"/>
    <circle cx="300" cy="660" r="10" fill="#6366f1"/>
    <rect x="320" y="655" width="320" height="10" rx="2" fill="#475569"/>
    <circle cx="300" cy="700" r="10" fill="#6366f1"/>
    <rect x="320" y="695" width="270" height="10" rx="2" fill="#475569"/>
  </svg>