<svg width="390" height="844" viewBox="0 0 390 844" fill="none" xmlns="http://www.w3.org/2000/svg">
    <rect width="390" height="844" fill="#0f172a"/>
    <!-- Header -->
    <rect width="390" height="60" fill="#1e293b"/>
    <rect x="20" y="20" width="200" height="20" rx="4" fill="#6366f1"/>
    <rect x="340" y="20" width="30" height="20" rx="4" fill="#475569"/>
    
    <!-- Navigation Tabs -->
    <rect width="390" height="50" y="60" fill="#1e293b"/>
    <rect x="10" y="70" width="80" height="30" rx="4" fill="#3e4c5e"/>
    <rect x="100" y="70" width="80" height="30" rx="4" fill="#2e3a4d"/>
    <rect x="190" y="70" width="80" height="30" rx="4" fill="#2e3a4d"/>
    <rect x="280" y="70" width="80" height="30" rx="4" fill="#2e3a4d"/>
    
    <!-- Main Content -->
    <rect x="20" y="130" width="350" height="40" rx="4" fill="#1e293b"/>
    <rect x="20" y="190" width="350" height="200" rx="8" fill="#1e293b"/>
    <rect x="40" y="210" width="310" height="20" rx="4" fill="#475569"/>
    <rect x="40" y="250" width="310" height="100" rx="4" fill="#0f172a"/>
    <rect x="40" y="370" width="80" height="30" rx="4" fill="#6366f1"/>
    
    <rect x="20" y="410" width="350" height="200" rx="8" fill="#1e293b"/>
    <rect x="40" y="430" width="310" height="20" rx="4" fill="#475569"/>
    <rect x="40" y="470" width="310" height="100" rx="4" fill="#0f172a"/>
    <rect x="40" y="590" width="80" height="30" rx="4" fill="#6366f1"/>
    
    <rect x="20" y="630" width="350" height="190" rx="8" fill="#1e293b"/>
    <circle cx="50" cy="660" r="10" fill="#6366f1"/>
    <rect x="70" y="655" width="200" height="10" rx="2" fill="#475569"/>
    <circle cx="50" cy="700" r="10" fill="#6366f1"/>
    <rect x="70" y="695" width="250" height="10" rx="2" fill="#475569"/>
    <circle cx="50" cy="740" r="10" fill="#6366f1"/>
    <rect x="70" y="735" width="220" height="10" rx="2" fill="#475569"/>
    <circle cx="50" cy="780" r="10" fill="#6366f1"/>
    <rect x="70" y="775" width="270" height="10" rx="2" fill="#475569"/>
  </svg>